<svg width="380" height="57" viewBox="0 0 380 57" fill="none" xmlns="http://www.w3.org/2000/svg">
<path d="M122.675 54.1988C130.585 54.1988 136.955 49.9288 138.775 41.7388H131.425C130.375 45.0988 127.085 47.4088 122.955 47.4088C117.145 47.4088 112.875 42.4388 112.875 35.7888C112.875 28.9288 117.145 24.0988 122.815 24.0988C126.945 24.0988 130.165 26.1288 131.425 29.6988H138.635C137.165 21.5088 130.725 17.2388 122.675 17.2388C112.525 17.2388 105.245 25.0788 105.245 35.7888C105.245 46.6388 112.595 54.1988 122.675 54.1988ZM160.755 54.1988C169.085 54.1988 174.545 49.8588 176.715 42.5788H169.435C168.245 45.8688 165.095 47.6188 160.965 47.6188C155.435 47.6188 151.515 43.9788 151.165 38.3088H176.995V35.4388C176.995 23.2588 170.065 17.2388 160.755 17.2388C150.325 17.2388 143.465 25.0788 143.465 35.7888C143.465 46.9888 150.605 54.1988 160.755 54.1988ZM169.505 32.4988H151.165C151.725 27.4588 155.295 23.7488 160.685 23.7488C165.935 23.7488 169.435 27.1788 169.505 32.4988ZM191.835 53.4288V34.5988C191.835 27.9488 195.055 24.5188 199.185 24.5188C203.035 24.5188 205.275 27.1088 205.275 31.9388V53.4288H212.695V30.4688C212.695 22.6288 208.775 17.2388 201.215 17.2388C196.385 17.2388 193.025 19.7588 191.415 22.7688L190.925 18.0088H184.485V53.4288H191.835ZM234.745 53.9188C237.475 53.9188 239.155 53.5688 240.275 53.1488V46.5688C239.225 46.9188 238.105 47.1988 236.285 47.1988C232.435 47.1988 231.385 45.4488 231.385 41.7388L231.525 24.8688H240.275V18.0088H231.595L231.735 9.32878H224.245L224.175 18.0088H217.945V24.8688H224.175L224.035 43.2788C223.965 50.8388 227.675 53.9188 234.745 53.9188ZM262.045 54.1988C270.375 54.1988 275.835 49.8588 278.005 42.5788H270.725C269.535 45.8688 266.385 47.6188 262.255 47.6188C256.725 47.6188 252.805 43.9788 252.455 38.3088H278.285V35.4388C278.285 23.2588 271.355 17.2388 262.045 17.2388C251.615 17.2388 244.755 25.0788 244.755 35.7888C244.755 46.9888 251.895 54.1988 262.045 54.1988ZM270.795 32.4988H252.455C253.015 27.4588 256.585 23.7488 261.975 23.7488C267.225 23.7488 270.725 27.1788 270.795 32.4988ZM293.475 53.4288V35.0188C293.545 31.4488 294.735 29.0688 296.555 27.4588C298.515 25.7788 300.825 25.0788 303.625 25.0788V17.6588C297.605 17.6588 294.385 20.8088 293.125 24.0288L292.565 18.0088H286.055V53.4288H293.475ZM319.795 53.4288V24.7988H327.915V18.0088H319.795V13.5988C319.795 9.95878 321.335 8.20878 323.925 8.20878C325.605 8.20878 326.795 8.55878 327.915 9.04878V2.39878C326.935 1.97878 325.535 1.62878 323.575 1.62878C316.295 1.62878 312.305 5.82878 312.305 13.3888V18.0088H306.075V24.7988H312.305V53.4288H319.795ZM337.645 12.0588C340.305 12.0588 342.475 10.0288 342.475 7.43878C342.475 4.77878 340.305 2.67878 337.645 2.67878C334.985 2.67878 332.885 4.77878 332.885 7.43878C332.885 10.0288 334.985 12.0588 337.645 12.0588ZM341.355 53.4288V18.0088H333.935V53.4288H341.355ZM358.995 53.4288V34.5988C358.995 27.9488 362.215 24.5188 366.345 24.5188C370.195 24.5188 372.435 27.1088 372.435 31.9388V53.4288H379.855V30.4688C379.855 22.6288 375.935 17.2388 368.375 17.2388C363.545 17.2388 360.185 19.7588 358.575 22.7688L358.085 18.0088H351.645V53.4288H358.995Z" fill="black"/>
<path d="M30.3017 0C35.552 0 39.3804 3.45057 42.2743 9.54398L42.575 10.1934L42.8263 10.7589L43.0712 11.3316L43.3106 11.9132L43.545 12.5058L43.7752 13.1111L44.0017 13.731L44.2254 14.3674L44.4467 15.0222L44.6665 15.6973L44.8854 16.3945L45.104 17.1156L45.3231 17.8627L45.5432 18.6375L45.7651 19.442L46.1027 20.7083L46.4481 22.0519L46.8035 23.4789L47.1711 24.9959L47.6842 27.1691L48.053 28.7638L87.9685 19.042L85.358 24.6878L84.7679 25.9533L84.1793 27.1935L83.5924 28.4084L83.0069 29.598L82.4229 30.7623C82.3257 30.9542 82.2285 31.1451 82.1314 31.3349L81.5495 32.4612C81.4526 32.6468 81.3558 32.8313 81.2591 33.0148L80.6792 34.103L80.1006 35.1658L79.5232 36.2032L78.947 37.2151C78.8511 37.3816 78.7552 37.5471 78.6594 37.7115L78.0849 38.6853C77.9892 38.8455 77.8936 39.0046 77.7981 39.1626L77.2252 40.0981C77.0344 40.4057 76.8438 40.709 76.6533 41.0081L76.0824 41.8925C75.4169 42.9095 74.7533 43.8743 74.0912 44.7867L73.5241 45.556C73.2407 45.9343 72.9576 46.3029 72.6748 46.6619L72.1094 47.367C67.0235 53.5977 62.0108 56.7067 56.923 56.6298C52.7182 56.5663 49.7371 53.6125 47.45 48.5014C47.3574 48.2945 47.2662 48.0855 47.1762 47.8739L46.9096 47.2306C46.7779 46.9044 46.6484 46.5712 46.5206 46.2292L46.2669 45.5328L46.0165 44.8099L45.7682 44.0573L45.5209 43.272L45.2735 42.4508L45.0249 41.5908L44.7739 40.6889L44.5196 39.7419L44.2606 38.7469L43.8613 37.1574L43.5861 36.0288L0 46.6456L1.80015 41.4471C1.99117 40.8955 2.18197 40.3494 2.37258 39.8087L2.94381 38.2033L3.51393 36.6307L4.08299 35.0911L4.65106 33.5845C4.74566 33.3361 4.84023 33.0891 4.93475 32.8435L5.50148 31.3863C5.69025 30.906 5.87888 30.4313 6.06739 29.962L6.63256 28.5707C6.72669 28.3416 6.8208 28.1138 6.91488 27.8875L7.47905 26.5456C7.57303 26.3247 7.66699 26.1052 7.76092 25.8871L8.32426 24.5947C8.41811 24.3821 8.51193 24.1708 8.60574 23.9609L9.1684 22.7181C9.73085 21.4918 10.2928 20.3149 10.8544 19.1877L11.416 18.0769C17.5927 6.04021 23.7516 0 30.3017 0ZM77.17 27.8468L49.42 34.6058L49.6378 35.4855L49.8806 36.4433L50.1208 37.3665L50.3586 38.2555L50.594 39.1105L50.8273 39.9319L51.0585 40.7201L51.2878 41.4753L51.5153 42.1979L51.7412 42.8883L51.9656 43.5467L52.1886 44.1734L52.4104 44.7689C52.4473 44.8655 52.4841 44.9609 52.5209 45.055L52.7411 45.6042C52.7777 45.6931 52.8143 45.7808 52.8509 45.8673L53.0698 46.3709C53.2155 46.6966 53.3607 47.0023 53.5056 47.2885L53.7228 47.7031L53.9398 48.0888L54.1565 48.4459C55.0235 49.8172 55.8899 50.5088 56.7947 50.616L56.908 50.6263L57.0136 50.6305C58.6649 50.6555 60.4547 49.9823 62.364 48.6029L62.8068 48.272C63.1775 47.9858 63.5525 47.6735 63.9318 47.335L64.389 46.9162C64.5421 46.7724 64.6958 46.6244 64.8502 46.4722L65.3154 46.003C65.3933 45.9227 65.4713 45.8414 65.5495 45.759L66.0205 45.252C66.0993 45.1654 66.1783 45.0777 66.2574 44.989L66.7341 44.4441L67.2146 43.8739C67.295 43.7767 67.3756 43.6785 67.4563 43.5793L67.9423 42.9711C68.0236 42.8677 68.1051 42.7631 68.1867 42.6575L68.6781 42.0113L69.1731 41.3398L69.6716 40.6428C69.755 40.5245 69.8385 40.4052 69.9221 40.2848L70.4258 39.5497L70.9328 38.7891L71.4431 38.0031L71.9566 37.1916L72.4734 36.3545C72.5598 36.2129 72.6463 36.0702 72.733 35.9264L73.2545 35.051L73.7791 34.15L74.3067 33.2235L74.8373 32.2713L75.3708 31.2935L75.9072 30.29L76.4464 29.2608L76.9884 28.2059L77.17 27.8468ZM30.3017 6C28.2836 6 26.047 7.36233 23.6437 10.0925L23.2417 10.5602C22.9726 10.8805 22.7015 11.2176 22.4284 11.5716L22.0174 12.1153C21.9487 12.2081 21.8798 12.3019 21.8108 12.3967L21.3955 12.9785C21.1176 13.3748 20.838 13.788 20.5565 14.2181L20.1329 14.8759L19.7067 15.5592L19.278 16.2678C19.2063 16.388 19.1345 16.5093 19.0626 16.6316L18.6301 17.3783C18.5578 17.5049 18.4854 17.6325 18.4129 17.7612L17.9767 18.546C17.9038 18.679 17.8308 18.8129 17.7577 18.948L17.3179 19.7709L16.8759 20.6192L16.4316 21.493C16.3574 21.6407 16.2831 21.7895 16.2087 21.9394L15.7611 22.8513L15.3115 23.7887L14.8598 24.7514L14.4061 25.7397L13.9505 26.7533L13.493 27.7925L13.0336 28.8571L12.5725 29.9472L12.1096 31.0627L11.645 32.2038L11.1788 33.3703L10.7111 34.5623L10.2418 35.7798L9.77104 37.0228L9.334 38.1958L42.223 30.1838L41.7302 28.066L41.3602 26.524L41.1161 25.5309L40.7535 24.0931L40.3945 22.717L40.0386 21.4016L39.6853 20.1462L39.3341 18.9501L38.9844 17.8124L38.7519 17.0861L38.5197 16.3851L38.2876 15.7094L38.0555 15.0586L37.8232 14.4325L37.5906 13.8309C37.5518 13.7327 37.5129 13.6354 37.4741 13.5392L37.2406 12.974L37.0064 12.4326C36.9673 12.3444 36.9282 12.2571 36.889 12.1708L36.6535 11.6649C36.6141 11.5826 36.5747 11.5012 36.5353 11.4207L36.298 10.9498L36.0593 10.5018C35.8997 10.2108 35.7391 9.93495 35.5772 9.67398L35.3335 9.29366L35.0878 8.93541C35.0467 8.87753 35.0055 8.82056 34.9642 8.7645L34.7152 8.43896C33.4644 6.86521 32.1242 6.09818 30.6061 6.00887L30.4536 6.00219L30.3017 6Z" fill="black"/>
</svg>
