<?xml version="1.0" encoding="UTF-8"?>
<svg width="381px" height="57px" viewBox="0 0 381 57" version="1.1" xmlns="http://www.w3.org/2000/svg" xmlns:xlink="http://www.w3.org/1999/xlink">
    <title>centerfin_black</title>
    <g id="Page-1" stroke="none" stroke-width="1" fill="none" fill-rule="evenodd">
        <g id="centerfin_black" transform="translate(5.000000, 2.000000)" fill="#000000" fill-rule="nonzero">
            <path d="M118.04,52.57 C125.95,52.57 132.32,48.3 134.14,40.11 L126.79,40.11 C125.74,43.47 122.45,45.78 118.32,45.78 C112.51,45.78 108.24,40.81 108.24,34.16 C108.24,27.3 112.51,22.47 118.18,22.47 C122.31,22.47 125.53,24.5 126.79,28.07 L134,28.07 C132.53,19.88 126.09,15.61 118.04,15.61 C107.89,15.61 100.61,23.45 100.61,34.16 C100.61,45.01 107.96,52.57 118.04,52.57 Z M156.12,52.57 C164.45,52.57 169.91,48.23 172.08,40.95 L164.8,40.95 C163.61,44.24 160.46,45.99 156.33,45.99 C150.8,45.99 146.88,42.35 146.53,36.68 L172.36,36.68 L172.36,33.81 C172.36,21.63 165.43,15.61 156.12,15.61 C145.69,15.61 138.83,23.45 138.83,34.16 C138.83,45.36 145.97,52.57 156.12,52.57 Z M164.87,30.87 L146.53,30.87 C147.09,25.83 150.66,22.12 156.05,22.12 C161.3,22.12 164.8,25.55 164.87,30.87 Z M187.2,51.8 L187.2,32.97 C187.2,26.32 190.42,22.89 194.55,22.89 C198.4,22.89 200.64,25.48 200.64,30.31 L200.64,51.8 L208.06,51.8 L208.06,28.84 C208.06,21 204.14,15.61 196.58,15.61 C191.75,15.61 188.39,18.13 186.78,21.14 L186.29,16.38 L179.85,16.38 L179.85,51.8 L187.2,51.8 Z M230.11,52.29 C232.84,52.29 234.52,51.94 235.64,51.52 L235.64,44.94 C234.59,45.29 233.47,45.57 231.65,45.57 C227.8,45.57 226.75,43.82 226.75,40.11 L226.89,23.24 L235.64,23.24 L235.64,16.38 L226.96,16.38 L227.1,7.7 L219.61,7.7 L219.54,16.38 L213.31,16.38 L213.31,23.24 L219.54,23.24 L219.4,41.65 C219.33,49.21 223.04,52.29 230.11,52.29 Z M257.41,52.57 C265.74,52.57 271.2,48.23 273.37,40.95 L266.09,40.95 C264.9,44.24 261.75,45.99 257.62,45.99 C252.09,45.99 248.17,42.35 247.82,36.68 L273.65,36.68 L273.65,33.81 C273.65,21.63 266.72,15.61 257.41,15.61 C246.98,15.61 240.12,23.45 240.12,34.16 C240.12,45.36 247.26,52.57 257.41,52.57 Z M266.16,30.87 L247.82,30.87 C248.38,25.83 251.95,22.12 257.34,22.12 C262.59,22.12 266.09,25.55 266.16,30.87 Z M288.84,51.8 L288.84,33.39 C288.91,29.82 290.1,27.44 291.92,25.83 C293.88,24.15 296.19,23.45 298.99,23.45 L298.99,16.03 C292.97,16.03 289.75,19.18 288.49,22.4 L287.93,16.38 L281.42,16.38 L281.42,51.8 L288.84,51.8 Z M315.16,51.8 L315.16,23.17 L323.28,23.17 L323.28,16.38 L315.16,16.38 L315.16,11.97 C315.16,8.33 316.7,6.58 319.29,6.58 C320.97,6.58 322.16,6.93 323.28,7.42 L323.28,0.77 C322.3,0.35 320.9,0 318.94,0 C311.66,0 307.67,4.2 307.67,11.76 L307.67,16.38 L301.44,16.38 L301.44,23.17 L307.67,23.17 L307.67,51.8 L315.16,51.8 Z M333.01,10.43 C335.67,10.43 337.84,8.4 337.84,5.81 C337.84,3.15 335.67,1.05 333.01,1.05 C330.35,1.05 328.25,3.15 328.25,5.81 C328.25,8.4 330.35,10.43 333.01,10.43 Z M336.72,51.8 L336.72,16.38 L329.3,16.38 L329.3,51.8 L336.72,51.8 Z M354.36,51.8 L354.36,32.97 C354.36,26.32 357.58,22.89 361.71,22.89 C365.56,22.89 367.8,25.48 367.8,30.31 L367.8,51.8 L375.22,51.8 L375.22,28.84 C375.22,21 371.3,15.61 363.74,15.61 C358.91,15.61 355.55,18.13 353.94,21.14 L353.45,16.38 L347.01,16.38 L347.01,51.8 L354.36,51.8 Z" id="centerfin-copy-10"></path>
            <path d="M25.6666667,-1.62877197 C30.9170045,-1.62877197 34.7454266,1.82179636 37.6393308,7.9152057 L37.9400308,8.56464388 L38.1912719,9.13015847 L38.4362372,9.70280493 L38.6755967,10.2844579 L38.91002,10.876992 L39.1401771,11.4822819 L39.3667377,12.1022023 L39.5903716,12.7386277 L39.8117487,13.3934329 L40.0315387,14.0684924 L40.2504116,14.765681 L40.4690371,15.4868732 L40.6880849,16.2339437 L40.9082251,17.0087672 L41.1301272,17.8132183 L41.4677496,19.0795474 L41.8131042,20.4230835 L42.1684519,21.8501535 L42.5360531,23.3670843 L43.0491565,25.5403775 L43.418,27.135 L83.3334902,17.4132108 L80.7230138,23.0590456 L80.1328796,24.3245013 L79.5443445,25.5646935 L78.9573635,26.7796026 L78.3718911,27.969209 L77.7878822,29.1334933 C77.6906668,29.3254294 77.5935105,29.5163096 77.4964123,29.7061335 L76.9145136,30.832398 C76.8176443,31.017995 76.7208312,31.2025349 76.6240734,31.3860173 L76.0441831,32.4742178 L75.4655751,33.5370181 L74.8882042,34.5743985 L74.312025,35.5863396 C74.216092,35.7528754 74.1202067,35.9183504 74.0243682,36.0827642 L73.4498918,37.0565096 C73.3542369,37.216677 73.2586269,37.3757824 73.163061,37.5338254 L72.5901855,38.4693311 C72.399398,38.7769145 72.2087789,39.080245 72.0183208,39.3793193 L71.4474214,40.2637704 C70.7819178,41.2807258 70.1182927,42.2455032 69.4562228,43.1579629 L68.8891076,43.9272555 C68.6057329,44.3054923 68.3226268,44.6741124 68.0397639,45.0331049 L67.4743549,45.7382496 C62.388456,51.9689612 57.3758502,55.0779316 52.2880199,55.0010738 C48.0832037,54.937555 45.1021383,51.9836827 42.8150001,46.8726279 C42.7224298,46.6657616 42.631234,46.4567678 42.5412273,46.2451348 L42.2745888,45.601806 C42.1428676,45.2756708 42.0134044,44.9424454 41.8855731,44.6004022 L41.631901,43.9040467 L41.3814677,43.1811055 L41.1331602,42.4285072 L40.8858655,41.6431802 L40.6384707,40.8220533 L40.3898627,39.9620548 L40.1389285,39.0601135 L39.8845552,38.1131577 L39.6256298,37.1181162 L39.2262717,35.5286743 L38.9510965,34.3999807 L-4.6349982,45.016851 L-2.83484542,39.8183425 C-2.64383109,39.2667284 -2.45302645,38.7206001 -2.26242011,38.1799587 L-1.69118462,36.5744965 L-1.12107069,35.0019632 L-0.552010077,33.4623661 L0.0160654796,31.9557125 C0.110666443,31.7073492 0.205229206,31.4603589 0.29975519,31.2147418 L0.866481136,29.7575171 C1.05525026,29.2772688 1.24388364,28.8025141 1.43239266,28.3332542 L1.99755801,26.9419604 C2.09169385,26.7128259 2.18580144,26.4850655 2.2798822,26.2586792 L2.84405628,24.9168526 C2.93803543,24.6959636 3.03199061,24.4764491 3.12592322,24.2583092 L3.68925959,22.9659663 C3.78310766,22.7533255 3.87693602,22.5420596 3.97074608,22.3321688 L4.53339831,21.0893261 C5.09585378,19.8629869 5.65775309,18.6861614 6.21940338,17.5588826 L6.78098204,16.4481207 C12.9576845,4.41143686 19.1166439,-1.62877197 25.6666667,-1.62877197 Z M72.535,26.218 L44.785,32.977 L45.0028376,33.8566971 L45.2456134,34.8145162 L45.4858085,35.7377437 L45.7235573,36.6267096 L45.9589948,37.4817442 L46.1922554,38.3031777 L46.4234741,39.0913403 L46.6527853,39.8465622 L46.8803239,40.5691735 L47.1062246,41.2595045 L47.330622,41.9178854 L47.5536508,42.5446463 L47.7754458,43.1401175 C47.8123163,43.2367736 47.849141,43.3321397 47.8859227,43.4262227 L48.1061194,43.9753784 C48.1427403,44.0643565 48.1793239,44.1520653 48.2158729,44.2385115 L48.4347745,44.7420947 C48.5804622,45.0677905 48.7256866,45.373507 48.8706271,45.6596845 L49.0878476,46.0743515 L49.304777,46.4600401 L49.5215502,46.8170805 C50.3885101,48.1883863 51.254952,48.8800612 52.1596691,48.9872021 L52.2729609,48.9975571 L52.3786468,49.0017583 C54.0298763,49.0267021 55.8196558,48.3535513 57.7290268,46.9741252 L58.1717652,46.6432549 C58.5424686,46.3570756 58.9175408,46.0447534 59.296847,45.7062301 L59.7540382,45.2874219 C59.9071069,45.1436245 60.0608445,44.9956312 60.2152422,44.8434382 L60.6804073,44.3742569 C60.7582621,44.2939589 60.8362797,44.2126101 60.9144591,44.1302101 L61.3854688,43.6231902 C61.4642911,43.536583 61.5432731,43.4489236 61.6224137,43.3602115 L62.0991514,42.8153029 L62.5796432,42.2451071 C62.6600351,42.147966 62.7405812,42.0497703 62.8212806,41.9505196 L63.3073062,41.3423513 C63.388614,41.2388786 63.4700727,41.13435 63.5516814,41.0287649 L64.0431245,40.3825738 L64.5381144,39.7110062 L65.0365994,39.0140397 C65.1199686,38.8957609 65.2034813,38.7764228 65.2871364,38.656025 L65.790767,37.9209184 L66.2977633,37.1603572 L66.8080735,36.374319 L67.3216458,35.5627814 L67.8384284,34.7257221 C67.9248235,34.5840842 68.0113502,34.4413819 68.0980075,34.2976148 L68.6195086,33.4222311 L69.1440906,32.5212698 L69.6717017,31.5947087 L70.2022902,30.6425253 L70.7358043,29.6646973 L71.2721921,28.6612024 L71.811402,27.6320183 L72.3533822,26.5771225 L72.535,26.218 Z M25.6666667,4.37122803 C23.6485709,4.37122803 21.4120417,5.73355874 19.0087394,8.46374676 L18.6066537,8.93144439 C18.3375789,9.25168763 18.0664806,9.5888218 17.7934297,9.94285446 L17.3823977,10.4865783 C17.3136512,10.5793115 17.2447849,10.6731012 17.1757999,10.7679474 L16.7604742,11.3497035 C16.4826524,11.7459942 16.2029666,12.159193 15.9214876,12.5893072 L15.497933,13.2471663 L15.0717419,13.9304043 L14.6429672,14.6390271 C14.5712924,14.7592466 14.4995122,14.8805241 14.4276277,15.0028595 L13.9950775,15.74957 C13.9227801,15.8761382 13.8503806,16.0037647 13.7778801,16.1324495 L13.3416739,16.9172605 C13.2687738,17.0501795 13.1957749,17.1841571 13.1226784,17.3191935 L12.6829358,18.1421178 L12.240902,18.9904581 L11.7966302,19.86422 C11.7224014,20.0119658 11.6480815,20.160771 11.5736717,20.3106359 L11.1261425,21.222541 L10.6765082,22.159882 L10.2248219,23.1226645 L9.7711368,24.1108943 L9.31550596,25.124577 L8.85798257,26.1637184 L8.39861977,27.2283241 L7.93747073,28.3183997 L7.47458858,29.433951 L7.01002647,30.5749837 L6.54383755,31.7415035 L6.07607497,32.933516 L5.60679189,34.1510269 L5.13604143,35.3940419 L4.699,36.567 L37.588,28.555 L37.0951941,26.437243 L36.7252331,24.8951832 L36.4811528,23.9021088 L36.1184794,22.464372 L35.7594702,21.088197 L35.4035939,19.7728096 L35.0503195,18.517436 L34.6991156,17.3213021 L34.3494509,16.1836337 L34.116934,15.4572869 L33.8847077,14.7563513 L33.6526147,14.0805978 L33.4204974,13.429797 L33.1881986,12.8037195 L32.9555608,12.2021361 C32.9167508,12.1039006 32.8779202,12.0066761 32.8390656,11.9104579 L32.6056242,11.3451854 L32.3714503,10.8038335 C32.3323515,10.7155888 32.2932157,10.6283313 32.2540395,10.5420561 L32.0184718,10.0361552 C31.979121,9.95379036 31.9397233,9.87239832 31.9002755,9.7919743 L31.6629597,9.32100828 L31.4242819,8.87304553 C31.2646744,8.58202049 31.1040538,8.30617806 30.9422104,8.04521245 L30.6985019,7.66488344 L30.4528017,7.30664032 C30.4116769,7.24876089 30.3704626,7.19179214 30.3291555,7.13572931 L30.0801726,6.81018501 C28.8294264,5.23643601 27.4892351,4.46940717 25.9710603,4.38009312 L25.8186463,4.37341598 L25.6666667,4.37122803 Z" id="Path-Copy-15"></path>
        </g>
    </g>
</svg>